<mxfile host="65bd71144e" pages="2">
    <diagram id="AA55DDw83Qh9yjEBtLau" name="orcoba-structure">
        <mxGraphModel dx="14360" dy="17680" grid="1" gridSize="10" guides="1" tooltips="1" connect="1" arrows="1" fold="1" page="1" pageScale="1" pageWidth="850" pageHeight="1100" math="0" shadow="0">
            <root>
                <mxCell id="0"/>
                <mxCell id="1" parent="0"/>
                <mxCell id="eBQuyIYxfwORe-5xOfRY-238" value="&lt;div style=&quot;font-size: 53px;&quot;&gt;Capability-increment-graph Quantum Mechanics&lt;br&gt;&lt;/div&gt;&lt;div style=&quot;font-size: 53px;&quot;&gt;&lt;br style=&quot;font-size: 53px;&quot;&gt;&lt;/div&gt;" style="text;html=1;strokeColor=none;fillColor=none;align=center;verticalAlign=middle;whiteSpace=wrap;rounded=0;fontSize=53;fontStyle=5" parent="1" vertex="1">
                    <mxGeometry x="7680" y="-7370" width="565.2" height="300" as="geometry"/>
                </mxCell>
                <mxCell id="eBQuyIYxfwORe-5xOfRY-407" value="&lt;font style=&quot;&quot;&gt;&lt;br&gt;This graph should be constructed according to Capingraph-Lang V0.2. See:&lt;br&gt;&lt;ul style=&quot;&quot;&gt;&lt;li style=&quot;&quot;&gt;&lt;font style=&quot;&quot;&gt;https://wiki.nanquanu.org/tiki/tiki-list_file_gallery.php?galleryId=19&lt;br style=&quot;font-size: 17px;&quot;&gt;&lt;/font&gt;&lt;/li&gt;&lt;li style=&quot;&quot;&gt;&lt;font style=&quot;&quot;&gt;https://wiki.nanquanu.org/tiki/NanquademyApproach--CompositionRecord#Syntax_and_semantics_of_capability-increment-graphs&lt;br&gt;&lt;/font&gt;&lt;/li&gt;&lt;/ul&gt;&lt;/font&gt;" style="text;html=1;strokeColor=none;fillColor=none;align=left;verticalAlign=middle;whiteSpace=wrap;rounded=0;fontSize=17;" parent="1" vertex="1">
                    <mxGeometry x="7930" y="-7160" width="690" height="260" as="geometry"/>
                </mxCell>
                <mxCell id="4" value="" style="rounded=0;whiteSpace=wrap;html=1;fillColor=none;strokeWidth=17;movable=0;resizable=0;rotatable=0;deletable=0;editable=0;connectable=0;" parent="1" vertex="1">
                    <mxGeometry x="5780" y="-7506.2699999999995" width="7360" height="3040" as="geometry"/>
                </mxCell>
                <mxCell id="5" value="Fuzzy capability: Transformer with Self-Attention Capabilities" style="shape=ext;double=1;rounded=1;whiteSpace=wrap;html=1;" parent="1" vertex="1">
                    <mxGeometry x="6997.5" y="-6346" width="355" height="90" as="geometry"/>
                </mxCell>
                <mxCell id="6" value="&amp;nbsp;" style="text;whiteSpace=wrap;html=1;" parent="1" vertex="1">
                    <mxGeometry x="7180" y="-6116" width="30" height="30" as="geometry"/>
                </mxCell>
                <mxCell id="76" value="" style="edgeStyle=none;html=1;" parent="1" source="7" target="8" edge="1">
                    <mxGeometry relative="1" as="geometry"/>
                </mxCell>
                <mxCell id="78" value="" style="edgeStyle=none;html=1;" parent="1" source="7" target="8" edge="1">
                    <mxGeometry relative="1" as="geometry"/>
                </mxCell>
                <mxCell id="7" value="Capability-EERG" style="text;html=1;strokeColor=none;fillColor=none;align=center;verticalAlign=middle;whiteSpace=wrap;rounded=0;fontSize=41;fontStyle=4" parent="1" vertex="1">
                    <mxGeometry x="6980" y="-5386" width="440" height="30" as="geometry"/>
                </mxCell>
                <mxCell id="77" value="" style="edgeStyle=none;html=1;" parent="1" source="8" target="7" edge="1">
                    <mxGeometry relative="1" as="geometry"/>
                </mxCell>
                <mxCell id="8" value="" style="rounded=1;whiteSpace=wrap;html=1;fontSize=12;" parent="1" vertex="1">
                    <mxGeometry x="7057.5" y="-5316" width="285" height="100" as="geometry"/>
                </mxCell>
                <mxCell id="58" value="" style="edgeStyle=none;html=1;" parent="1" source="9" target="21" edge="1">
                    <mxGeometry relative="1" as="geometry"/>
                </mxCell>
                <mxCell id="9" value="" style="rounded=1;whiteSpace=wrap;html=1;fontSize=12;" parent="1" vertex="1">
                    <mxGeometry x="6980" y="-5156" width="120" height="60" as="geometry"/>
                </mxCell>
                <mxCell id="59" value="" style="edgeStyle=none;html=1;" parent="1" source="10" target="11" edge="1">
                    <mxGeometry relative="1" as="geometry"/>
                </mxCell>
                <mxCell id="10" value="" style="rounded=1;whiteSpace=wrap;html=1;fontSize=12;" parent="1" vertex="1">
                    <mxGeometry x="7280" y="-5156" width="120" height="80" as="geometry"/>
                </mxCell>
                <mxCell id="11" value="" style="rounded=1;whiteSpace=wrap;html=1;fontSize=12;" parent="1" vertex="1">
                    <mxGeometry x="7280" y="-4976" width="120" height="60" as="geometry"/>
                </mxCell>
                <mxCell id="12" value="" style="endArrow=classic;html=1;fontSize=12;edgeStyle=orthogonalEdgeStyle;" parent="1" source="9" target="8" edge="1">
                    <mxGeometry relative="1" as="geometry">
                        <mxPoint x="7032.5" y="-5176" as="sourcePoint"/>
                        <mxPoint x="7132.5" y="-5176" as="targetPoint"/>
                    </mxGeometry>
                </mxCell>
                <mxCell id="13" value="Label" style="edgeLabel;resizable=0;html=1;align=center;verticalAlign=middle;" parent="12" connectable="0" vertex="1">
                    <mxGeometry relative="1" as="geometry"/>
                </mxCell>
                <mxCell id="14" value="&lt;div&gt;isSubclassOf&lt;/div&gt;" style="edgeLabel;html=1;align=center;verticalAlign=middle;resizable=0;points=[];fontSize=12;" parent="12" vertex="1" connectable="0">
                    <mxGeometry x="0.0701" y="-1" relative="1" as="geometry">
                        <mxPoint as="offset"/>
                    </mxGeometry>
                </mxCell>
                <mxCell id="15" value="" style="endArrow=classic;html=1;fontSize=12;edgeStyle=orthogonalEdgeStyle;" parent="1" source="10" target="8" edge="1">
                    <mxGeometry relative="1" as="geometry">
                        <mxPoint x="7300" y="-5186" as="sourcePoint"/>
                        <mxPoint x="7400" y="-5186" as="targetPoint"/>
                    </mxGeometry>
                </mxCell>
                <mxCell id="16" value="Label" style="edgeLabel;resizable=0;html=1;align=center;verticalAlign=middle;" parent="15" connectable="0" vertex="1">
                    <mxGeometry relative="1" as="geometry"/>
                </mxCell>
                <mxCell id="17" value="&lt;div&gt;isSubclassOf&lt;/div&gt;" style="edgeLabel;html=1;align=center;verticalAlign=middle;resizable=0;points=[];fontSize=12;" parent="15" vertex="1" connectable="0">
                    <mxGeometry x="-0.0857" y="2" relative="1" as="geometry">
                        <mxPoint as="offset"/>
                    </mxGeometry>
                </mxCell>
                <mxCell id="18" value="" style="endArrow=classic;html=1;fontSize=12;edgeStyle=orthogonalEdgeStyle;" parent="1" source="11" target="10" edge="1">
                    <mxGeometry relative="1" as="geometry">
                        <mxPoint x="6950" y="-5036" as="sourcePoint"/>
                        <mxPoint x="7090" y="-5086" as="targetPoint"/>
                    </mxGeometry>
                </mxCell>
                <mxCell id="19" value="Label" style="edgeLabel;resizable=0;html=1;align=center;verticalAlign=middle;" parent="18" connectable="0" vertex="1">
                    <mxGeometry relative="1" as="geometry"/>
                </mxCell>
                <mxCell id="20" value="&lt;div&gt;isSubclassOf&lt;/div&gt;" style="edgeLabel;html=1;align=center;verticalAlign=middle;resizable=0;points=[];fontSize=12;" parent="18" vertex="1" connectable="0">
                    <mxGeometry x="0.0701" y="-1" relative="1" as="geometry">
                        <mxPoint as="offset"/>
                    </mxGeometry>
                </mxCell>
                <mxCell id="21" value="" style="rounded=1;whiteSpace=wrap;html=1;fontSize=12;" parent="1" vertex="1">
                    <mxGeometry x="6980" y="-4996" width="120" height="60" as="geometry"/>
                </mxCell>
                <mxCell id="22" value="" style="endArrow=classic;html=1;fontSize=12;edgeStyle=orthogonalEdgeStyle;" parent="1" source="21" target="9" edge="1">
                    <mxGeometry relative="1" as="geometry">
                        <mxPoint x="6940" y="-5006" as="sourcePoint"/>
                        <mxPoint x="6940" y="-5086" as="targetPoint"/>
                    </mxGeometry>
                </mxCell>
                <mxCell id="23" value="Label" style="edgeLabel;resizable=0;html=1;align=center;verticalAlign=middle;" parent="22" connectable="0" vertex="1">
                    <mxGeometry relative="1" as="geometry"/>
                </mxCell>
                <mxCell id="24" value="&lt;div&gt;isSubclassOf&lt;/div&gt;" style="edgeLabel;html=1;align=center;verticalAlign=middle;resizable=0;points=[];fontSize=12;" parent="22" vertex="1" connectable="0">
                    <mxGeometry x="0.0701" y="-1" relative="1" as="geometry">
                        <mxPoint as="offset"/>
                    </mxGeometry>
                </mxCell>
                <mxCell id="25" value="" style="rounded=1;whiteSpace=wrap;html=1;fontSize=12;" parent="1" vertex="1">
                    <mxGeometry x="7170" y="-4846" width="120" height="60" as="geometry"/>
                </mxCell>
                <mxCell id="26" value="&lt;div&gt;The (standard) perceptron&lt;br&gt;&lt;/div&gt;" style="rounded=1;whiteSpace=wrap;html=1;fontSize=12;" parent="1" vertex="1">
                    <mxGeometry x="7400" y="-4846" width="120" height="60" as="geometry"/>
                </mxCell>
                <mxCell id="27" value="" style="endArrow=classic;html=1;fontSize=12;edgeStyle=orthogonalEdgeStyle;" parent="1" source="25" target="11" edge="1">
                    <mxGeometry relative="1" as="geometry">
                        <mxPoint x="7209.76" y="-4911" as="sourcePoint"/>
                        <mxPoint x="7209.76" y="-5021" as="targetPoint"/>
                    </mxGeometry>
                </mxCell>
                <mxCell id="28" value="Label" style="edgeLabel;resizable=0;html=1;align=center;verticalAlign=middle;" parent="27" connectable="0" vertex="1">
                    <mxGeometry relative="1" as="geometry"/>
                </mxCell>
                <mxCell id="29" value="&lt;div&gt;isSubclassOf&lt;/div&gt;" style="edgeLabel;html=1;align=center;verticalAlign=middle;resizable=0;points=[];fontSize=12;" parent="27" vertex="1" connectable="0">
                    <mxGeometry x="0.0701" y="-1" relative="1" as="geometry">
                        <mxPoint as="offset"/>
                    </mxGeometry>
                </mxCell>
                <mxCell id="30" value="" style="endArrow=classic;html=1;fontSize=12;edgeStyle=orthogonalEdgeStyle;" parent="1" source="26" target="11" edge="1">
                    <mxGeometry relative="1" as="geometry">
                        <mxPoint x="7260" y="-4836" as="sourcePoint"/>
                        <mxPoint x="7350" y="-4906" as="targetPoint"/>
                    </mxGeometry>
                </mxCell>
                <mxCell id="31" value="Label" style="edgeLabel;resizable=0;html=1;align=center;verticalAlign=middle;" parent="30" connectable="0" vertex="1">
                    <mxGeometry relative="1" as="geometry"/>
                </mxCell>
                <mxCell id="32" value="isInstanceOf" style="edgeLabel;html=1;align=center;verticalAlign=middle;resizable=0;points=[];fontSize=12;" parent="30" vertex="1" connectable="0">
                    <mxGeometry x="0.0701" y="-1" relative="1" as="geometry">
                        <mxPoint as="offset"/>
                    </mxGeometry>
                </mxCell>
                <mxCell id="33" value="" style="shape=ext;double=1;rounded=1;whiteSpace=wrap;html=1;fontSize=12;" parent="1" vertex="1">
                    <mxGeometry x="6970" y="-5953.5" width="270" height="65" as="geometry"/>
                </mxCell>
                <mxCell id="34" value="Sinusoidal Positional encoding" style="shape=ext;double=1;rounded=1;whiteSpace=wrap;html=1;fontSize=12;" parent="1" vertex="1">
                    <mxGeometry x="7330" y="-6176" width="300" height="90" as="geometry"/>
                </mxCell>
                <mxCell id="35" value="" style="shape=ext;double=1;rounded=1;whiteSpace=wrap;html=1;fontSize=12;" parent="1" vertex="1">
                    <mxGeometry x="6490" y="-5956" width="270" height="70" as="geometry"/>
                </mxCell>
                <mxCell id="36" value="" style="shape=ext;double=1;rounded=1;whiteSpace=wrap;html=1;fontSize=12;align=left;fillColor=#ffe6cc;strokeColor=#d79b00;" parent="1" vertex="1">
                    <mxGeometry x="6940" y="-5826" width="390" height="170" as="geometry"/>
                </mxCell>
                <mxCell id="37" value="" style="shape=ext;double=1;rounded=1;whiteSpace=wrap;html=1;fontSize=12;align=left;fillColor=#ffe6cc;strokeColor=#d79b00;" parent="1" vertex="1">
                    <mxGeometry x="7460" y="-5876" width="390" height="110" as="geometry"/>
                </mxCell>
                <mxCell id="38" value="Fuzzy capability: probabilistic tokenization" style="shape=ext;double=1;rounded=1;whiteSpace=wrap;html=1;fontSize=12;align=center;verticalAlign=middle;" parent="1" vertex="1">
                    <mxGeometry x="6650" y="-6176" width="415" height="60" as="geometry"/>
                </mxCell>
                <mxCell id="39" value="" style="endArrow=classic;html=1;fontSize=12;edgeStyle=orthogonalEdgeStyle;" parent="1" source="35" target="38" edge="1">
                    <mxGeometry relative="1" as="geometry">
                        <mxPoint x="6750" y="-6066" as="sourcePoint"/>
                        <mxPoint x="6850" y="-6066" as="targetPoint"/>
                    </mxGeometry>
                </mxCell>
                <mxCell id="40" value="&lt;div&gt;hasCapInc&lt;/div&gt;" style="edgeLabel;resizable=0;html=1;align=center;verticalAlign=middle;" parent="39" connectable="0" vertex="1">
                    <mxGeometry relative="1" as="geometry"/>
                </mxCell>
                <mxCell id="41" value="" style="endArrow=classic;html=1;fontSize=12;edgeStyle=orthogonalEdgeStyle;" parent="1" source="33" target="38" edge="1">
                    <mxGeometry relative="1" as="geometry">
                        <mxPoint x="6725.0344827586205" y="-5961" as="sourcePoint"/>
                        <mxPoint x="6867.517241379311" y="-6106" as="targetPoint"/>
                    </mxGeometry>
                </mxCell>
                <mxCell id="42" value="&lt;div&gt;hasCapInc&lt;/div&gt;" style="edgeLabel;resizable=0;html=1;align=center;verticalAlign=middle;" parent="41" connectable="0" vertex="1">
                    <mxGeometry relative="1" as="geometry"/>
                </mxCell>
                <mxCell id="43" value="" style="endArrow=classic;html=1;fontSize=12;edgeStyle=orthogonalEdgeStyle;" parent="1" source="35" target="33" edge="1">
                    <mxGeometry relative="1" as="geometry">
                        <mxPoint x="6790" y="-5921.34" as="sourcePoint"/>
                        <mxPoint x="6890" y="-5921.34" as="targetPoint"/>
                    </mxGeometry>
                </mxCell>
                <mxCell id="44" value="requiredFor" style="edgeLabel;resizable=0;html=1;align=center;verticalAlign=middle;" parent="43" connectable="0" vertex="1">
                    <mxGeometry relative="1" as="geometry"/>
                </mxCell>
                <mxCell id="45" value="" style="endArrow=classic;html=1;fontSize=12;edgeStyle=orthogonalEdgeStyle;" parent="1" source="38" target="5" edge="1">
                    <mxGeometry relative="1" as="geometry">
                        <mxPoint x="7432.5" y="-6023.5" as="sourcePoint"/>
                        <mxPoint x="7185" y="-6186" as="targetPoint"/>
                    </mxGeometry>
                </mxCell>
                <mxCell id="46" value="&lt;div&gt;hasCapInc&lt;/div&gt;" style="edgeLabel;resizable=0;html=1;align=center;verticalAlign=middle;" parent="45" connectable="0" vertex="1">
                    <mxGeometry relative="1" as="geometry"/>
                </mxCell>
                <mxCell id="47" value="" style="endArrow=classic;html=1;fontSize=12;edgeStyle=orthogonalEdgeStyle;" parent="1" source="34" target="5" edge="1">
                    <mxGeometry relative="1" as="geometry">
                        <mxPoint x="6867.5" y="-6166" as="sourcePoint"/>
                        <mxPoint x="7185" y="-6246" as="targetPoint"/>
                    </mxGeometry>
                </mxCell>
                <mxCell id="48" value="&lt;div&gt;hasCapInc&lt;/div&gt;" style="edgeLabel;resizable=0;html=1;align=center;verticalAlign=middle;" parent="47" connectable="0" vertex="1">
                    <mxGeometry relative="1" as="geometry"/>
                </mxCell>
                <mxCell id="49" value="" style="shape=ext;double=1;rounded=1;whiteSpace=wrap;html=1;fontSize=12;align=center;verticalAlign=middle;" parent="1" vertex="1">
                    <mxGeometry x="7500" y="-5986" width="270" height="67.5" as="geometry"/>
                </mxCell>
                <mxCell id="50" value="" style="endArrow=classic;html=1;fontSize=12;edgeStyle=orthogonalEdgeStyle;" parent="1" source="49" target="34" edge="1">
                    <mxGeometry relative="1" as="geometry">
                        <mxPoint x="7115" y="-5943.5" as="sourcePoint"/>
                        <mxPoint x="6867.571428571428" y="-6106" as="targetPoint"/>
                    </mxGeometry>
                </mxCell>
                <mxCell id="51" value="&lt;div&gt;hasCapInc&lt;/div&gt;" style="edgeLabel;resizable=0;html=1;align=center;verticalAlign=middle;" parent="50" connectable="0" vertex="1">
                    <mxGeometry relative="1" as="geometry"/>
                </mxCell>
                <mxCell id="52" value="" style="shape=ext;double=1;rounded=1;whiteSpace=wrap;html=1;fontSize=12;align=left;fillColor=#ffe6cc;strokeColor=#d79b00;" parent="1" vertex="1">
                    <mxGeometry x="6430" y="-5826" width="390" height="170" as="geometry"/>
                </mxCell>
                <mxCell id="53" value="" style="shape=ext;double=1;rounded=1;whiteSpace=wrap;html=1;fontSize=12;align=left;fillColor=#ffe6cc;strokeColor=#d79b00;" parent="1" vertex="1">
                    <mxGeometry x="6440" y="-5606" width="390" height="170" as="geometry"/>
                </mxCell>
                <mxCell id="54" value="&lt;div style=&quot;text-align: left; font-size: 17px;&quot;&gt;&lt;span style=&quot;background-color: initial; font-size: 17px;&quot;&gt;&lt;b style=&quot;font-size: 17px;&quot;&gt;Dialogue (top-posted)&lt;/b&gt;&lt;/span&gt;&lt;/div&gt;&lt;div style=&quot;text-align: left; font-size: 17px;&quot;&gt;&lt;span style=&quot;background-color: initial; font-size: 17px;&quot;&gt;&lt;b style=&quot;font-size: 17px;&quot;&gt;&lt;br style=&quot;font-size: 17px;&quot;&gt;&lt;/b&gt;&lt;/span&gt;&lt;/div&gt;&lt;div style=&quot;text-align: left; font-size: 17px;&quot;&gt;&lt;span style=&quot;background-color: initial; font-size: 17px;&quot;&gt;* Chide(8oct2023)|: TODO: this is an older version than the graph posted to the left. Check/verify if all of it has been integrated in that newer version.&lt;/span&gt;&lt;br style=&quot;font-size: 17px;&quot;&gt;&lt;/div&gt;&lt;div style=&quot;text-align: left; font-size: 17px;&quot;&gt;&lt;span style=&quot;font-size: 17px; background-color: initial;&quot;&gt;* Chide(8oct2023)|: The graph below covers *all* of AI, not only machine learning. * Chide(6oct2023)|: Below is a copy/paste of the basic capingraph for AI as it was on 21sep2021. There is a newer version created in collab with the Pol. TODO: add&lt;/span&gt;&lt;/div&gt;&lt;font style=&quot;font-size: 17px;&quot;&gt;&lt;br style=&quot;font-size: 17px;&quot;&gt;&lt;/font&gt;" style="text;html=1;strokeColor=none;fillColor=none;align=center;verticalAlign=middle;whiteSpace=wrap;rounded=0;fontSize=17;" parent="1" vertex="1">
                    <mxGeometry x="6676.6900000000005" y="-6930" width="976.63" height="340" as="geometry"/>
                </mxCell>
                <mxCell id="55" value="&lt;div&gt;Capability-increment-graph Transformer (Self-Attention Mechanism-Based) ANN capabilities&lt;/div&gt;&lt;div&gt;&lt;br&gt;&lt;/div&gt;" style="text;html=1;strokeColor=none;fillColor=none;align=center;verticalAlign=middle;whiteSpace=wrap;rounded=0;fontSize=41;fontStyle=5" parent="1" vertex="1">
                    <mxGeometry x="6880" y="-7320" width="565.2" height="240" as="geometry"/>
                </mxCell>
                <mxCell id="56" value="&lt;font style=&quot;&quot;&gt;&lt;br&gt;This graph should be constructed according to Capingraph-Lang V0.2. See:&lt;br&gt;&lt;ul style=&quot;&quot;&gt;&lt;li style=&quot;&quot;&gt;&lt;font style=&quot;&quot;&gt;https://wiki.nanquanu.org/tiki/tiki-list_file_gallery.php?galleryId=19&lt;br style=&quot;font-size: 17px;&quot;&gt;&lt;/font&gt;&lt;/li&gt;&lt;li style=&quot;&quot;&gt;&lt;font style=&quot;&quot;&gt;https://wiki.nanquanu.org/tiki/NanquademyApproach--CompositionRecord#Syntax_and_semantics_of_capability-increment-graphs&lt;br&gt;&lt;/font&gt;&lt;/li&gt;&lt;/ul&gt;&lt;/font&gt;" style="text;html=1;strokeColor=none;fillColor=none;align=left;verticalAlign=middle;whiteSpace=wrap;rounded=0;fontSize=17;" parent="1" vertex="1">
                    <mxGeometry x="6830" y="-7200" width="690" height="260" as="geometry"/>
                </mxCell>
                <mxCell id="57" value="&lt;div align=&quot;left&quot;&gt;o Reply of chat gpt, is that for English, it is typically enforced that the tokens are NOT multi-word. But that does not hold for all languages: &quot;https://chat.openai.com/share/f005d2af-0f8b-4c00-a244-151a2174412d&quot;&lt;br&gt;&lt;/div&gt;&lt;div align=&quot;left&quot;&gt;&lt;br&gt;&lt;/div&gt;&lt;div align=&quot;left&quot;&gt;Chide(24feb2024)|: &lt;br&gt;&lt;/div&gt;Can one token also span multiple words?&lt;br&gt;&lt;br&gt;o Chatgpt: &quot;In probabilistic tokenizations used in large language models (LLMs) like&lt;br&gt; GPT-3, homonyms are typically treated as different tokens because they &lt;br&gt;have different meanings and contexts in language. Each word or sequence &lt;br&gt;of characters that represents a distinct meaning or usage is typically &lt;br&gt;tokenized separately.&quot;&lt;br&gt;Chide(24feb2024)|: Are homonyms treated as different tokens? For example &quot;row&quot; as in &quot;rowing&quot; and &quot;row&quot; as a sequence?" style="shape=note;whiteSpace=wrap;html=1;backgroundOutline=1;darkOpacity=0.05;fillColor=#BABABA;strokeColor=#666666;fontColor=#333333;verticalAlign=top;align=left;" parent="1" vertex="1">
                    <mxGeometry x="6160" y="-6249.09" width="450" height="219.09" as="geometry"/>
                </mxCell>
                <mxCell id="61" value="Fuzzy capability: understand layer normalization (in the context of transformers)" style="shape=ext;double=1;rounded=1;whiteSpace=wrap;html=1;fontSize=12;" parent="1" vertex="1">
                    <mxGeometry x="8280" y="-6186.41" width="300" height="90" as="geometry"/>
                </mxCell>
                <mxCell id="60" value="o Often they work with batches of multiple sequences. Is the position &quot;reset&quot; for each sequence. I.e. does each sequence first token have positon 0?&lt;br&gt;o How are position indices assigned? Does the first word in the input sequence get pos=0, regardles of whether there are multiple sentences in a sequence?" style="shape=note;whiteSpace=wrap;html=1;backgroundOutline=1;darkOpacity=0.05;fillColor=#BABABA;strokeColor=#666666;fontColor=#333333;verticalAlign=top;align=left;" parent="1" vertex="1">
                    <mxGeometry x="7690" y="-6275.93" width="450" height="219.09" as="geometry"/>
                </mxCell>
                <mxCell id="62" value="Layer normalization in transformers" style="rounded=1;whiteSpace=wrap;html=1;fontSize=12;" parent="1" vertex="1">
                    <mxGeometry x="7600" y="-5275.39" width="285" height="100" as="geometry"/>
                </mxCell>
                <mxCell id="64" value="Chide(21mar2024)|: Be aware that &quot;layer normalization&quot; as used in the article &lt;a href=&quot;https://arxiv.org/abs/1607.06450&quot;&gt;Layer Normalization Jimmy Lei Ba, Jamie Ryan Kiros, Geoffrey E. Hinton&lt;/a&gt; is not equal to " style="shape=note;whiteSpace=wrap;html=1;backgroundOutline=1;darkOpacity=0.05;fillColor=#BABABA;strokeColor=#666666;fontColor=#333333;verticalAlign=top;align=left;" parent="1" vertex="1">
                    <mxGeometry x="8205" y="-6520" width="450" height="219.09" as="geometry"/>
                </mxCell>
                <mxCell id="65" value="Defining all types of learnable parameters of an original transformer." style="shape=ext;double=1;rounded=1;whiteSpace=wrap;html=1;fontSize=12;" parent="1" vertex="1">
                    <mxGeometry x="7850" y="-6002.09" width="300" height="90" as="geometry"/>
                </mxCell>
                <mxCell id="66" value="* Chide(15apr2024)|: see &lt;a href=&quot;https://chat.openai.com/c/b08fd5ac-c583-41b9-aa7a-1c6a0d04f572&quot;&gt;https://chat.openai.com/c/b08fd5ac-c583-41b9-aa7a-1c6a0d04f572&lt;br&gt;&lt;/a&gt;" style="shape=note;whiteSpace=wrap;html=1;backgroundOutline=1;darkOpacity=0.05;fillColor=#BABABA;strokeColor=#666666;fontColor=#333333;verticalAlign=top;align=left;" parent="1" vertex="1">
                    <mxGeometry x="8200" y="-6031.94" width="450" height="219.09" as="geometry"/>
                </mxCell>
                <mxCell id="67" value="Token x &lt;i&gt;&lt;b&gt;attends to&lt;/b&gt;&lt;/i&gt; token y" style="rounded=1;whiteSpace=wrap;html=1;fontSize=12;" parent="1" vertex="1">
                    <mxGeometry x="7600" y="-5155.61" width="285" height="100" as="geometry"/>
                </mxCell>
                <mxCell id="68" value="* Chide(20apr2024)|: I think this means: the relevance of token y's semantics to token x's semantics. To be precise: do determine the degree that token x attends to token y, you need the query-vector of x and the key-vector of y. But I am not certain whether it is not the exact opposite." style="shape=note;whiteSpace=wrap;html=1;backgroundOutline=1;darkOpacity=0.05;fillColor=#BABABA;strokeColor=#666666;fontColor=#333333;verticalAlign=top;align=left;" parent="1" vertex="1">
                    <mxGeometry x="7970" y="-5216" width="460" height="86" as="geometry"/>
                </mxCell>
                <mxCell id="G549q7PqP6DxDfEcH7zm-68" value="Fuzzy capability: understanding the attention mechanism" style="shape=ext;double=1;rounded=1;whiteSpace=wrap;html=1;fontSize=12;align=center;verticalAlign=middle;" parent="1" vertex="1">
                    <mxGeometry x="8960" y="-6176" width="415" height="60" as="geometry"/>
                </mxCell>
                <mxCell id="G549q7PqP6DxDfEcH7zm-69" value="Fuzzy capability: understanding attention mechanism in the encoder" style="shape=ext;double=1;rounded=1;whiteSpace=wrap;html=1;fontSize=12;align=center;verticalAlign=middle;" parent="1" vertex="1">
                    <mxGeometry x="8700" y="-6026.41" width="415" height="60" as="geometry"/>
                </mxCell>
                <mxCell id="G549q7PqP6DxDfEcH7zm-70" value="Fuzzy capability: understanding attention mechanism in the decoder" style="shape=ext;double=1;rounded=1;whiteSpace=wrap;html=1;fontSize=12;align=center;verticalAlign=middle;" parent="1" vertex="1">
                    <mxGeometry x="9240" y="-6022.66" width="415" height="60" as="geometry"/>
                </mxCell>
                <mxCell id="69" value="Maximum token length" style="rounded=1;whiteSpace=wrap;html=1;fontSize=12;" parent="1" vertex="1">
                    <mxGeometry x="7600" y="-5028.54" width="285" height="100" as="geometry"/>
                </mxCell>
                <mxCell id="70" value="Block-size" style="rounded=1;whiteSpace=wrap;html=1;fontSize=12;" parent="1" vertex="1">
                    <mxGeometry x="7610" y="-4873" width="285" height="100" as="geometry"/>
                </mxCell>
                <mxCell id="71" value="Context-window" style="rounded=1;whiteSpace=wrap;html=1;fontSize=12;" parent="1" vertex="1">
                    <mxGeometry x="7600" y="-4730" width="285" height="100" as="geometry"/>
                </mxCell>
                <mxCell id="73" style="edgeStyle=none;html=1;exitX=0;exitY=0.5;exitDx=0;exitDy=0;exitPerimeter=0;entryX=1;entryY=0.5;entryDx=0;entryDy=0;" parent="1" source="72" target="69" edge="1">
                    <mxGeometry relative="1" as="geometry"/>
                </mxCell>
                <mxCell id="72" value="* Chide(28may2024)|: &quot;Maximum token length&quot; seems most prevalent way for this notion. Synonyms are &quot;maximum sequence length', but I've also seen this be used in a different sense." style="shape=note;whiteSpace=wrap;html=1;backgroundOutline=1;darkOpacity=0.05;fillColor=#BABABA;strokeColor=#666666;fontColor=#333333;verticalAlign=top;align=left;" parent="1" vertex="1">
                    <mxGeometry x="7990" y="-5022" width="460" height="86" as="geometry"/>
                </mxCell>
                <mxCell id="75" style="edgeStyle=none;html=1;" parent="1" source="74" target="70" edge="1">
                    <mxGeometry relative="1" as="geometry"/>
                </mxCell>
                <mxCell id="74" value="* Chide(28may2024)|: See &lt;a href=&quot;https://g.co/gemini/share/6042b5861a90&quot;&gt;https://g.co/gemini/share/6042b5861a90&lt;br&gt;&lt;/a&gt;" style="shape=note;whiteSpace=wrap;html=1;backgroundOutline=1;darkOpacity=0.05;fillColor=#BABABA;strokeColor=#666666;fontColor=#333333;verticalAlign=top;align=left;" parent="1" vertex="1">
                    <mxGeometry x="8030" y="-4859" width="410" height="86" as="geometry"/>
                </mxCell>
                <mxCell id="ynwPB2oFPbzzlWKqPaWK-75" value="Choosing a good block-size and good context-window size, also in relation to each other." style="shape=ext;double=1;rounded=1;whiteSpace=wrap;html=1;fontSize=12;" parent="1" vertex="1">
                    <mxGeometry x="7970" y="-5713.9400000000005" width="300" height="90" as="geometry"/>
                </mxCell>
                <mxCell id="ynwPB2oFPbzzlWKqPaWK-76" value="* Chide(28may2024)|: see &lt;a href=&quot;https://g.co/gemini/share/c93210d8adc1&quot;&gt;https://g.co/gemini/share/c93210d8adc1&lt;/a&gt;" style="shape=note;whiteSpace=wrap;html=1;backgroundOutline=1;darkOpacity=0.05;fillColor=#BABABA;strokeColor=#666666;fontColor=#333333;verticalAlign=top;align=left;" parent="1" vertex="1">
                    <mxGeometry x="8340" y="-5747.0599999999995" width="450" height="219.09" as="geometry"/>
                </mxCell>
            </root>
        </mxGraphModel>
    </diagram>
    <diagram id="sD7p5IzPbQsNOeiUjZur" name="domain-eerg">
        <mxGraphModel dx="973" dy="1668" grid="1" gridSize="10" guides="1" tooltips="1" connect="1" arrows="1" fold="1" page="1" pageScale="1" pageWidth="827" pageHeight="1169" math="1" shadow="0">
            <root>
                <mxCell id="mkhQnHASV8la3oyavxDH-0"/>
                <mxCell id="mkhQnHASV8la3oyavxDH-1" parent="mkhQnHASV8la3oyavxDH-0"/>
                <mxCell id="5diD1ClXFeKk2aU0JZf7-10" value="The growth-function as defined in Learning_From_Data_Book__Abu-Mostafa" style="ellipse;shape=doubleEllipse;whiteSpace=wrap;html=1;aspect=fixed;" parent="mkhQnHASV8la3oyavxDH-1" vertex="1">
                    <mxGeometry x="1430" y="-80" width="233.34" height="140" as="geometry"/>
                </mxCell>
                <mxCell id="5diD1ClXFeKk2aU0JZf7-11" value="Shattering as defined in Learning_From_Data_Book__Abu-Mostafa" style="ellipse;shape=doubleEllipse;whiteSpace=wrap;html=1;aspect=fixed;" parent="mkhQnHASV8la3oyavxDH-1" vertex="1">
                    <mxGeometry x="1180" y="40" width="233.34" height="140" as="geometry"/>
                </mxCell>
                <mxCell id="5diD1ClXFeKk2aU0JZf7-12" value="&lt;div&gt;Hoeffdings inequality&lt;/div&gt;" style="ellipse;shape=doubleEllipse;whiteSpace=wrap;html=1;aspect=fixed;" parent="mkhQnHASV8la3oyavxDH-1" vertex="1">
                    <mxGeometry x="970" width="183.34" height="110" as="geometry"/>
                </mxCell>
                <mxCell id="5diD1ClXFeKk2aU0JZf7-13" value="Hoeffding's equation applied to bounding the TODO as defined in Learning_From_Data_Book__Abu-Mostafa" style="ellipse;shape=doubleEllipse;whiteSpace=wrap;html=1;aspect=fixed;" parent="mkhQnHASV8la3oyavxDH-1" vertex="1">
                    <mxGeometry x="640" y="80" width="300" height="180" as="geometry"/>
                </mxCell>
                <mxCell id="5diD1ClXFeKk2aU0JZf7-14" value="E_out as defined in Learning_From_Data_Book__Abu-Mostafa." style="ellipse;shape=doubleEllipse;whiteSpace=wrap;html=1;aspect=fixed;" parent="mkhQnHASV8la3oyavxDH-1" vertex="1">
                    <mxGeometry x="1070" y="200" width="216.67" height="130" as="geometry"/>
                </mxCell>
                <mxCell id="5diD1ClXFeKk2aU0JZf7-15" value="E_in as defined in Learning_From_Data_Book__Abu-Mostafa." style="ellipse;shape=doubleEllipse;whiteSpace=wrap;html=1;aspect=fixed;" parent="mkhQnHASV8la3oyavxDH-1" vertex="1">
                    <mxGeometry x="724" y="390" width="233.34" height="140" as="geometry"/>
                </mxCell>
                <mxCell id="5diD1ClXFeKk2aU0JZf7-16" value="The probability that E_in differs more than epsilon from E_out." style="ellipse;shape=doubleEllipse;whiteSpace=wrap;html=1;aspect=fixed;" parent="mkhQnHASV8la3oyavxDH-1" vertex="1">
                    <mxGeometry x="957.34" y="460" width="216.67" height="130" as="geometry"/>
                </mxCell>
                <mxCell id="_HDEkHVqpnRfGhPBlJo7-0" value="&lt;div&gt;[node17mar2021_0111]&lt;/div&gt;&lt;div&gt;&lt;br&gt;&lt;/div&gt;&lt;div&gt; * DrO(17mar2021)|: In my current opinion &quot;error estimation&quot; is a better name than in of sample error in the scope of machine learning. In sample error is used in d Learning_From_Data_Book__Abu-Mostafa. Error estimation is closer to the purpose of the in sample error, and moreover, it resonates with terminology from statistics (estimators), I think it makes it easier for people to understand the material.&lt;/div&gt;" style="ellipse;shape=doubleEllipse;whiteSpace=wrap;html=1;aspect=fixed;" parent="mkhQnHASV8la3oyavxDH-1" vertex="1">
                    <mxGeometry x="770" y="-360" width="550" height="330" as="geometry"/>
                </mxCell>
                <mxCell id="_HDEkHVqpnRfGhPBlJo7-1" value="* DrO(17mar2021)|: I thik that &quot;true error&quot; is a better name than &quot;out of sample error&quot;. For an explanation, see[node17mar2021_0111]]" style="ellipse;shape=doubleEllipse;whiteSpace=wrap;html=1;aspect=fixed;" parent="mkhQnHASV8la3oyavxDH-1" vertex="1">
                    <mxGeometry x="1330" y="-300" width="316.67" height="190" as="geometry"/>
                </mxCell>
                <mxCell id="_HDEkHVqpnRfGhPBlJo7-2" value="The notion &quot;in sample error&quot; as defined in Learning_From_Data_Book__Abu-Mostafa." style="ellipse;shape=doubleEllipse;whiteSpace=wrap;html=1;aspect=fixed;" parent="mkhQnHASV8la3oyavxDH-1" vertex="1">
                    <mxGeometry x="1220" y="-530" width="316.67" height="190" as="geometry"/>
                </mxCell>
                <mxCell id="7fAkMwq1MPJKWgg3LfOY-0" value="&lt;div&gt;The VC dimension.&lt;/div&gt;" style="ellipse;shape=doubleEllipse;whiteSpace=wrap;html=1;aspect=fixed;" parent="mkhQnHASV8la3oyavxDH-1" vertex="1">
                    <mxGeometry x="1737" y="-230" width="183.34" height="110" as="geometry"/>
                </mxCell>
                <mxCell id="7fAkMwq1MPJKWgg3LfOY-1" value="VC dimension = Vapnik-Chervonenkis dimension" style="ellipse;shape=doubleEllipse;whiteSpace=wrap;html=1;aspect=fixed;" parent="mkhQnHASV8la3oyavxDH-1" vertex="1">
                    <mxGeometry x="1646.67" y="-550" width="316.67" height="190" as="geometry"/>
                </mxCell>
                <mxCell id="7fAkMwq1MPJKWgg3LfOY-2" value="Machine learning is broader than artificial neural networks" style="ellipse;shape=doubleEllipse;whiteSpace=wrap;html=1;aspect=fixed;" parent="mkhQnHASV8la3oyavxDH-1" vertex="1">
                    <mxGeometry x="1712" y="-80" width="366.67" height="220" as="geometry"/>
                </mxCell>
                <mxCell id="7fAkMwq1MPJKWgg3LfOY-3" value="&lt;div&gt;Most important learning models in machine learning include:&lt;/div&gt;&lt;div&gt;&lt;ul&gt;&lt;li&gt;&lt;div align=&quot;left&quot;&gt;Support Vector Machines&lt;/div&gt;&lt;/li&gt;&lt;li&gt;&lt;div align=&quot;left&quot;&gt;Decision Trees&lt;/div&gt;&lt;/li&gt;&lt;li&gt;&lt;div align=&quot;left&quot;&gt;Bayesian networks&lt;br&gt;&lt;/div&gt;&lt;/li&gt;&lt;li&gt;&lt;div align=&quot;left&quot;&gt;Artificial Neural Networks&lt;/div&gt;&lt;/li&gt;&lt;li&gt;&lt;div align=&quot;left&quot;&gt;Genetic algorithms&lt;/div&gt;&lt;/li&gt;&lt;li&gt;&lt;div align=&quot;left&quot;&gt;Regression analysis&lt;br&gt;&lt;/div&gt;&lt;div align=&quot;left&quot;&gt;&lt;br&gt;&lt;/div&gt;&lt;/li&gt;&lt;/ul&gt;&lt;/div&gt;" style="ellipse;shape=doubleEllipse;whiteSpace=wrap;html=1;aspect=fixed;" parent="mkhQnHASV8la3oyavxDH-1" vertex="1">
                    <mxGeometry x="1660" y="160" width="433.34" height="260" as="geometry"/>
                </mxCell>
                <mxCell id="UAjhjAp1iWfRPDavXgby-0" value="TheVC dimension is equal to the smallest breakpoint minus one." style="ellipse;shape=doubleEllipse;whiteSpace=wrap;html=1;aspect=fixed;" parent="mkhQnHASV8la3oyavxDH-1" vertex="1">
                    <mxGeometry x="2000" y="-420" width="316.67" height="190" as="geometry"/>
                </mxCell>
                <mxCell id="UAjhjAp1iWfRPDavXgby-1" value="The VC dimension and breakpoints differ trivially from each other (are conceptually almost synonyms)." style="ellipse;shape=doubleEllipse;whiteSpace=wrap;html=1;aspect=fixed;" parent="mkhQnHASV8la3oyavxDH-1" vertex="1">
                    <mxGeometry x="2130" y="-170" width="316.67" height="190" as="geometry"/>
                </mxCell>
                <mxCell id="UAjhjAp1iWfRPDavXgby-2" value="Bonsaiguigo: confuser: the way Abu-Mostafa introduced the VC dimension, made me think that it added something that was new in comparison to what had been treated so far in the book. So, I was looking for more behind than there actually was. &quot;Is this really everything&quot; &quot;Is it just conceptually synomous to the smallest break-point? (Literally it is the smallest breakpoint minus one.) Why didn't you say so immediately!&quot;" style="ellipse;shape=doubleEllipse;whiteSpace=wrap;html=1;aspect=fixed;" parent="mkhQnHASV8la3oyavxDH-1" vertex="1">
                    <mxGeometry x="2170" y="50" width="580" height="348" as="geometry"/>
                </mxCell>
                <mxCell id="o6MmLh12jpvZ9Ku102jC-0" value="Meaning of the notion &quot;variable&quot; in the context of machine learning (assuming nothing in addition)." style="ellipse;shape=doubleEllipse;whiteSpace=wrap;html=1;aspect=fixed;" parent="mkhQnHASV8la3oyavxDH-1" vertex="1">
                    <mxGeometry x="279.99999999999994" y="-740" width="333.34" height="200" as="geometry"/>
                </mxCell>
                <mxCell id="o6MmLh12jpvZ9Ku102jC-1" value="A variable in the context of machine learning is one of the elements of the input vector. It typically represents a property of something, for example, &quot;the gender of a person&quot;, the &quot;height of a person&quot;." style="ellipse;shape=doubleEllipse;whiteSpace=wrap;html=1;aspect=fixed;" parent="mkhQnHASV8la3oyavxDH-1" vertex="1">
                    <mxGeometry x="390" y="-370" width="350" height="210" as="geometry"/>
                </mxCell>
                <mxCell id="o6MmLh12jpvZ9Ku102jC-2" value="The common interpretation of the notion variable in the context of machine learning (not knowing additional things), is as it is used commonly in physics and statistics - &lt;b&gt;not&lt;/b&gt; as it is used in mathematics. So, as a property of something or some state of affairs, such as haircolor of person, or the wheel diameter of the wheels of a bicycle." style="ellipse;shape=doubleEllipse;whiteSpace=wrap;html=1;aspect=fixed;" parent="mkhQnHASV8la3oyavxDH-1" vertex="1">
                    <mxGeometry x="585.99" y="-610" width="384.01" height="230.4" as="geometry"/>
                </mxCell>
                <mxCell id="rJGG0wWM0xbdfZ-Fy-h7-0" value="You have binary logistic regression and multi-class logistic regression" style="ellipse;shape=doubleEllipse;whiteSpace=wrap;html=1;aspect=fixed;" parent="mkhQnHASV8la3oyavxDH-1" vertex="1">
                    <mxGeometry x="1274" y="420" width="316.67" height="190" as="geometry"/>
                </mxCell>
                <mxCell id="rJGG0wWM0xbdfZ-Fy-h7-1" value="Synonyms for multi-class logistic regression are: multinomial LR, polytomous LR." style="ellipse;shape=doubleEllipse;whiteSpace=wrap;html=1;aspect=fixed;" parent="mkhQnHASV8la3oyavxDH-1" vertex="1">
                    <mxGeometry x="1083" y="610" width="316.67" height="190" as="geometry"/>
                </mxCell>
                <mxCell id="rJGG0wWM0xbdfZ-Fy-h7-6" value="" style="group;fontStyle=4;container=1;" parent="mkhQnHASV8la3oyavxDH-1" vertex="1" connectable="0">
                    <mxGeometry x="1320.0000000000002" y="770" width="316.6700000000001" height="300" as="geometry"/>
                </mxCell>
                <mxCell id="rJGG0wWM0xbdfZ-Fy-h7-4" value="&amp;nbsp;The machine learning problem is only specific to machine learning for the learning algorithm, the rest is the standard problem in statistics." style="ellipse;shape=doubleEllipse;whiteSpace=wrap;html=1;aspect=fixed;" parent="rJGG0wWM0xbdfZ-Fy-h7-6" vertex="1">
                    <mxGeometry y="110" width="316.67" height="190" as="geometry"/>
                </mxCell>
                <mxCell id="rJGG0wWM0xbdfZ-Fy-h7-5" value="* DrO(26mar2021)|: I am not sure about this." style="whiteSpace=wrap;html=1;shape=mxgraph.basic.roundRectCallout;dx=30;dy=15;size=5;boundedLbl=1;container=1;" parent="rJGG0wWM0xbdfZ-Fy-h7-6" vertex="1">
                    <mxGeometry x="142.65999999999985" width="167" height="110" as="geometry"/>
                </mxCell>
                <mxCell id="rJGG0wWM0xbdfZ-Fy-h7-7" value="" style="group" parent="mkhQnHASV8la3oyavxDH-1" vertex="1" connectable="0">
                    <mxGeometry x="682.34" y="630" width="316.66999999999996" height="300" as="geometry"/>
                </mxCell>
                <mxCell id="rJGG0wWM0xbdfZ-Fy-h7-2" value="&lt;div&gt;Logistic regression does not originate from the field of &lt;br&gt;&lt;/div&gt;&lt;div&gt;machine learning. &lt;br&gt;&lt;/div&gt;&lt;div&gt;&lt;br&gt;&lt;/div&gt;" style="ellipse;shape=doubleEllipse;whiteSpace=wrap;html=1;aspect=fixed;" parent="rJGG0wWM0xbdfZ-Fy-h7-7" vertex="1">
                    <mxGeometry y="110" width="316.67" height="190" as="geometry"/>
                </mxCell>
                <mxCell id="rJGG0wWM0xbdfZ-Fy-h7-3" value="* DrO(26mar2021)|: I am not sure about this." style="whiteSpace=wrap;html=1;shape=mxgraph.basic.roundRectCallout;dx=30;dy=15;size=5;boundedLbl=1;" parent="rJGG0wWM0xbdfZ-Fy-h7-7" vertex="1">
                    <mxGeometry x="149.66999999999996" width="167" height="110" as="geometry"/>
                </mxCell>
                <mxCell id="rJGG0wWM0xbdfZ-Fy-h7-8" value="The relation (differences and commonalities) between logistic regression and neural networks." style="ellipse;shape=doubleEllipse;whiteSpace=wrap;html=1;aspect=fixed;" parent="mkhQnHASV8la3oyavxDH-1" vertex="1">
                    <mxGeometry x="660" y="960" width="316.67" height="190" as="geometry"/>
                </mxCell>
                <mxCell id="rJGG0wWM0xbdfZ-Fy-h7-9" value="&lt;a href=&quot;https://www.quora.com/What-is-the-difference-between-neural-network-and-logistic-regression?share=1&quot;&gt;https://www.quora.com/What-is-the-difference-between-neural-network-and-logistic-regression?share=1&lt;/a&gt;" style="ellipse;shape=doubleEllipse;whiteSpace=wrap;html=1;aspect=fixed;" parent="mkhQnHASV8la3oyavxDH-1" vertex="1">
                    <mxGeometry x="700" y="1160" width="316.67" height="190" as="geometry"/>
                </mxCell>
                <mxCell id="rJGG0wWM0xbdfZ-Fy-h7-10" value="Global minima of a neural network are [always |&amp;nbsp; not always] in a finite area of the weight-space." style="ellipse;shape=doubleEllipse;whiteSpace=wrap;html=1;aspect=fixed;" parent="mkhQnHASV8la3oyavxDH-1" vertex="1">
                    <mxGeometry x="1241" y="1190" width="316.67" height="190" as="geometry"/>
                </mxCell>
                <mxCell id="dlozDcIuFkSOnoF5DsTR-2" style="edgeStyle=orthogonalEdgeStyle;rounded=0;orthogonalLoop=1;jettySize=auto;html=1;" parent="mkhQnHASV8la3oyavxDH-1" source="dlozDcIuFkSOnoF5DsTR-0" target="dlozDcIuFkSOnoF5DsTR-1" edge="1">
                    <mxGeometry relative="1" as="geometry"/>
                </mxCell>
                <mxCell id="dlozDcIuFkSOnoF5DsTR-8" style="rounded=0;orthogonalLoop=1;jettySize=auto;html=1;" parent="mkhQnHASV8la3oyavxDH-1" source="dlozDcIuFkSOnoF5DsTR-0" target="dlozDcIuFkSOnoF5DsTR-5" edge="1">
                    <mxGeometry relative="1" as="geometry"/>
                </mxCell>
                <mxCell id="dlozDcIuFkSOnoF5DsTR-11" style="edgeStyle=none;rounded=0;orthogonalLoop=1;jettySize=auto;html=1;" parent="mkhQnHASV8la3oyavxDH-1" source="dlozDcIuFkSOnoF5DsTR-0" target="dlozDcIuFkSOnoF5DsTR-10" edge="1">
                    <mxGeometry relative="1" as="geometry"/>
                </mxCell>
                <mxCell id="dlozDcIuFkSOnoF5DsTR-0" value="$$x_0$$" style="ellipse;whiteSpace=wrap;html=1;aspect=fixed;" parent="mkhQnHASV8la3oyavxDH-1" vertex="1">
                    <mxGeometry x="230" y="1450" width="80" height="80" as="geometry"/>
                </mxCell>
                <mxCell id="dlozDcIuFkSOnoF5DsTR-15" style="edgeStyle=none;rounded=0;orthogonalLoop=1;jettySize=auto;html=1;" parent="mkhQnHASV8la3oyavxDH-1" source="dlozDcIuFkSOnoF5DsTR-1" target="dlozDcIuFkSOnoF5DsTR-6" edge="1">
                    <mxGeometry relative="1" as="geometry"/>
                </mxCell>
                <mxCell id="dlozDcIuFkSOnoF5DsTR-1" value="" style="ellipse;whiteSpace=wrap;html=1;aspect=fixed;" parent="mkhQnHASV8la3oyavxDH-1" vertex="1">
                    <mxGeometry x="480" y="1450" width="80" height="80" as="geometry"/>
                </mxCell>
                <mxCell id="dlozDcIuFkSOnoF5DsTR-9" style="edgeStyle=none;rounded=0;orthogonalLoop=1;jettySize=auto;html=1;" parent="mkhQnHASV8la3oyavxDH-1" source="dlozDcIuFkSOnoF5DsTR-3" target="dlozDcIuFkSOnoF5DsTR-5" edge="1">
                    <mxGeometry relative="1" as="geometry"/>
                </mxCell>
                <mxCell id="dlozDcIuFkSOnoF5DsTR-12" style="edgeStyle=none;rounded=0;orthogonalLoop=1;jettySize=auto;html=1;" parent="mkhQnHASV8la3oyavxDH-1" source="dlozDcIuFkSOnoF5DsTR-3" target="dlozDcIuFkSOnoF5DsTR-1" edge="1">
                    <mxGeometry relative="1" as="geometry"/>
                </mxCell>
                <mxCell id="dlozDcIuFkSOnoF5DsTR-13" style="edgeStyle=none;rounded=0;orthogonalLoop=1;jettySize=auto;html=1;" parent="mkhQnHASV8la3oyavxDH-1" source="dlozDcIuFkSOnoF5DsTR-3" target="dlozDcIuFkSOnoF5DsTR-10" edge="1">
                    <mxGeometry relative="1" as="geometry"/>
                </mxCell>
                <mxCell id="dlozDcIuFkSOnoF5DsTR-3" value="&lt;div&gt;$$x_1$$&lt;/div&gt;" style="ellipse;whiteSpace=wrap;html=1;aspect=fixed;" parent="mkhQnHASV8la3oyavxDH-1" vertex="1">
                    <mxGeometry x="220" y="1600" width="80" height="80" as="geometry"/>
                </mxCell>
                <mxCell id="dlozDcIuFkSOnoF5DsTR-4" value="$$x_2$$" style="ellipse;whiteSpace=wrap;html=1;aspect=fixed;" parent="mkhQnHASV8la3oyavxDH-1" vertex="1">
                    <mxGeometry x="220" y="1720" width="80" height="80" as="geometry"/>
                </mxCell>
                <mxCell id="dlozDcIuFkSOnoF5DsTR-5" value="" style="ellipse;whiteSpace=wrap;html=1;aspect=fixed;" parent="mkhQnHASV8la3oyavxDH-1" vertex="1">
                    <mxGeometry x="480" y="1600" width="80" height="80" as="geometry"/>
                </mxCell>
                <mxCell id="dlozDcIuFkSOnoF5DsTR-6" value="" style="ellipse;whiteSpace=wrap;html=1;aspect=fixed;" parent="mkhQnHASV8la3oyavxDH-1" vertex="1">
                    <mxGeometry x="747" y="1450" width="80" height="80" as="geometry"/>
                </mxCell>
                <mxCell id="dlozDcIuFkSOnoF5DsTR-10" value="" style="ellipse;whiteSpace=wrap;html=1;aspect=fixed;" parent="mkhQnHASV8la3oyavxDH-1" vertex="1">
                    <mxGeometry x="490" y="1740" width="80" height="80" as="geometry"/>
                </mxCell>
                <mxCell id="dlozDcIuFkSOnoF5DsTR-14" value="$$w_{0;1}^{1}$$&lt;sub&gt;&lt;sup&gt;&lt;br&gt;&lt;/sup&gt;&lt;/sub&gt;" style="text;html=1;strokeColor=none;fillColor=none;align=center;verticalAlign=middle;whiteSpace=wrap;rounded=0;" parent="mkhQnHASV8la3oyavxDH-1" vertex="1">
                    <mxGeometry x="343.34" y="1450" width="75" height="55" as="geometry"/>
                </mxCell>
                <mxCell id="dlozDcIuFkSOnoF5DsTR-16" value="w&lt;sub&gt;1 1&lt;/sub&gt;&lt;sup&gt; 2&lt;br&gt;&lt;/sup&gt;" style="text;html=1;strokeColor=none;fillColor=none;align=center;verticalAlign=middle;whiteSpace=wrap;rounded=0;" parent="mkhQnHASV8la3oyavxDH-1" vertex="1">
                    <mxGeometry x="640" y="1460" width="40" height="20" as="geometry"/>
                </mxCell>
                <mxCell id="dlozDcIuFkSOnoF5DsTR-17" value="Input layer" style="text;html=1;align=center;verticalAlign=middle;resizable=0;points=[];autosize=1;" parent="mkhQnHASV8la3oyavxDH-1" vertex="1">
                    <mxGeometry x="235" y="1400" width="70" height="20" as="geometry"/>
                </mxCell>
                <mxCell id="dlozDcIuFkSOnoF5DsTR-18" value="&lt;div&gt;layer 1&lt;/div&gt;&lt;div&gt;&lt;br&gt;&lt;/div&gt;" style="text;html=1;align=center;verticalAlign=middle;resizable=0;points=[];autosize=1;" parent="mkhQnHASV8la3oyavxDH-1" vertex="1">
                    <mxGeometry x="495" y="1400" width="50" height="30" as="geometry"/>
                </mxCell>
                <mxCell id="dlozDcIuFkSOnoF5DsTR-19" value="&lt;div&gt;w&lt;sub&gt;0 2&lt;/sub&gt;&lt;sup&gt;1&lt;/sup&gt;&lt;/div&gt;" style="text;html=1;strokeColor=none;fillColor=none;align=center;verticalAlign=middle;whiteSpace=wrap;rounded=0;" parent="mkhQnHASV8la3oyavxDH-1" vertex="1">
                    <mxGeometry x="440" y="1570" width="40" height="20" as="geometry"/>
                </mxCell>
                <mxCell id="dlozDcIuFkSOnoF5DsTR-23" value="The standard notation for linear target function definition: f(x1, ..., xn) = ???" style="ellipse;shape=doubleEllipse;whiteSpace=wrap;html=1;aspect=fixed;" parent="mkhQnHASV8la3oyavxDH-1" vertex="1">
                    <mxGeometry x="2164" y="740" width="316.67" height="190" as="geometry"/>
                </mxCell>
                <mxCell id="3a1-XkEDjiuIefhKPO_A-0" value="Input variables" style="ellipse;shape=doubleEllipse;whiteSpace=wrap;html=1;aspect=fixed;" parent="mkhQnHASV8la3oyavxDH-1" vertex="1">
                    <mxGeometry x="135" y="-280" width="250" height="150" as="geometry"/>
                </mxCell>
                <mxCell id="3a1-XkEDjiuIefhKPO_A-1" value="&lt;div&gt;Synonyms for input variables:&lt;/div&gt;&lt;div&gt;&lt;br&gt;&lt;/div&gt;" style="ellipse;shape=doubleEllipse;whiteSpace=wrap;html=1;aspect=fixed;" parent="mkhQnHASV8la3oyavxDH-1" vertex="1">
                    <mxGeometry x="89.99999999999996" y="-40" width="316.67" height="190" as="geometry"/>
                </mxCell>
                <mxCell id="3a1-XkEDjiuIefhKPO_A-2" value="&lt;div&gt;Output variable&lt;/div&gt;" style="ellipse;shape=doubleEllipse;whiteSpace=wrap;html=1;aspect=fixed;" parent="mkhQnHASV8la3oyavxDH-1" vertex="1">
                    <mxGeometry x="101.67" y="-509.99999999999994" width="316.67" height="190" as="geometry"/>
                </mxCell>
                <mxCell id="3a1-XkEDjiuIefhKPO_A-3" value="Standard meaning of the notion &quot;parameter&quot; in the context of machine learning (assuming nothing in addition)" style="ellipse;shape=doubleEllipse;whiteSpace=wrap;html=1;aspect=fixed;" parent="mkhQnHASV8la3oyavxDH-1" vertex="1">
                    <mxGeometry x="90" y="-970" width="316.67" height="190" as="geometry"/>
                </mxCell>
                <mxCell id="3a1-XkEDjiuIefhKPO_A-4" value="Standard meaning of parameter, is that it is one of the parameters that together uniquely determines a particular hypothesis from the hypothesis set. Example: a the weights of a perceptron are the parameters." style="ellipse;shape=doubleEllipse;whiteSpace=wrap;html=1;aspect=fixed;" parent="mkhQnHASV8la3oyavxDH-1" vertex="1">
                    <mxGeometry x="550" y="-970" width="316.67" height="190" as="geometry"/>
                </mxCell>
                <mxCell id="3a1-XkEDjiuIefhKPO_A-5" value="Perceptron terminology: weight = weight parameter" style="ellipse;shape=doubleEllipse;whiteSpace=wrap;html=1;aspect=fixed;" parent="mkhQnHASV8la3oyavxDH-1" vertex="1">
                    <mxGeometry x="740" y="-800" width="316.67" height="190" as="geometry"/>
                </mxCell>
                <mxCell id="HXPb1m_tYwHYUtw5UZlh-0" value="&lt;div&gt;Is the VC dimension also useful in the context of finite hypotheses sets?&lt;/div&gt;&lt;div&gt;&lt;br&gt;&lt;/div&gt;&lt;div&gt;-- Yes according to Arno Siebes&lt;br&gt;&lt;/div&gt;" style="ellipse;shape=doubleEllipse;whiteSpace=wrap;html=1;aspect=fixed;" parent="mkhQnHASV8la3oyavxDH-1" vertex="1">
                    <mxGeometry x="123.32999999999998" y="395" width="316.67" height="190" as="geometry"/>
                </mxCell>
                <mxCell id="97PzM-IakMg05QNaqbjO-1" value="&lt;div&gt;Loss function, cost function and objective function have a closely related meaning&lt;/div&gt;&lt;div&gt;TODO convert followin answer: to this diagram: &lt;a href=&quot;https://stats.stackexchange.com/questions/179026/objective-function-cost-function-loss-function-are-they-the-same-thing&quot;&gt;https://stats.stackexchange.com/questions/179026/objective-function-cost-function-loss-function-are-they-the-same-thing&lt;/a&gt;&lt;br&gt;&lt;/div&gt;" style="ellipse;shape=doubleEllipse;whiteSpace=wrap;html=1;aspect=fixed;" parent="mkhQnHASV8la3oyavxDH-1" vertex="1">
                    <mxGeometry x="2470" y="452" width="580" height="348" as="geometry"/>
                </mxCell>
                <mxCell id="7q2gXi-ieQzXYADuVwSH-2" value="" style="group" parent="mkhQnHASV8la3oyavxDH-1" vertex="1" connectable="0">
                    <mxGeometry x="1670.16" y="805" width="466.66999999999985" height="390" as="geometry"/>
                </mxCell>
                <mxCell id="7q2gXi-ieQzXYADuVwSH-0" value="&lt;div&gt;Bias-variance tradeoff implies that both cannot be low at the same time. This statement is not true! Two examples: hypothesis set with one hypothesis, but target function that is equal to it. (2) target function is linear function, and the hypothesis set is the set of all linear functions, and the dataset contains at least 2 points.&lt;/div&gt;&lt;div&gt;&lt;br&gt;&lt;/div&gt;&lt;div&gt;The second shows that even for assumptions about the target function that allows infinitely many functions as target, bias and variance can even be zero, and even with very little data.&lt;/div&gt;" style="ellipse;shape=doubleEllipse;whiteSpace=wrap;html=1;aspect=fixed;" parent="7q2gXi-ieQzXYADuVwSH-2" vertex="1">
                    <mxGeometry y="110" width="466.67" height="280" as="geometry"/>
                </mxCell>
                <mxCell id="7q2gXi-ieQzXYADuVwSH-1" value="* DrO(25may2021)|: I am not sure about this." style="whiteSpace=wrap;html=1;shape=mxgraph.basic.roundRectCallout;dx=30;dy=15;size=5;boundedLbl=1;container=1;" parent="7q2gXi-ieQzXYADuVwSH-2" vertex="1">
                    <mxGeometry x="209.83999999999992" width="167" height="110" as="geometry"/>
                </mxCell>
                <mxCell id="7q2gXi-ieQzXYADuVwSH-3" value="* DrO(25may2021)|: So, in what cases does the tradeoff exactly appear? " style="whiteSpace=wrap;html=1;shape=mxgraph.basic.roundRectCallout;dx=30;dy=15;size=5;boundedLbl=1;container=1;" parent="mkhQnHASV8la3oyavxDH-1" vertex="1">
                    <mxGeometry x="1880" y="695" width="167" height="110" as="geometry"/>
                </mxCell>
                <mxCell id="lUPsrdJMGBZC_unrbqka-0" value="Applying linear regression to polynomials by means of a transformation of the polynomial to a linear problem is known as polynomial regression." style="ellipse;shape=doubleEllipse;whiteSpace=wrap;html=1;aspect=fixed;" parent="mkhQnHASV8la3oyavxDH-1" vertex="1">
                    <mxGeometry x="1380" y="1520" width="316.67" height="190" as="geometry"/>
                </mxCell>
                <mxCell id="lUPsrdJMGBZC_unrbqka-1" value="In polynomial regression, it has certain advantages to work with so-called orthogonal polynomials." style="ellipse;shape=doubleEllipse;whiteSpace=wrap;html=1;aspect=fixed;" parent="mkhQnHASV8la3oyavxDH-1" vertex="1">
                    <mxGeometry x="1274" y="1740" width="316.67" height="190" as="geometry"/>
                </mxCell>
                <mxCell id="lUPsrdJMGBZC_unrbqka-2" value="&lt;div&gt;Wikipedia page about polynomial regression: &lt;a href=&quot;https://en.wikipedia.org/wiki/Polynomial_regression&quot;&gt;https://en.wikipedia.org/wiki/Polynomial_regression&lt;/a&gt;&lt;/div&gt;&lt;div&gt;&lt;br&gt;&lt;/div&gt;" style="ellipse;whiteSpace=wrap;html=1;" parent="mkhQnHASV8la3oyavxDH-1" vertex="1">
                    <mxGeometry x="1040" y="1600" width="300" height="160" as="geometry"/>
                </mxCell>
                <mxCell id="lUPsrdJMGBZC_unrbqka-3" value="Wikipedia page about orthogonal polynomials: &lt;a href=&quot;https://en.wikipedia.org/wiki/Orthogonal_polynomials&quot;&gt;https://en.wikipedia.org/wiki/Orthogonal_polynomials&lt;/a&gt;" style="ellipse;shape=doubleEllipse;whiteSpace=wrap;html=1;aspect=fixed;" parent="mkhQnHASV8la3oyavxDH-1" vertex="1">
                    <mxGeometry x="1080" y="1930" width="316.67" height="190" as="geometry"/>
                </mxCell>
                <mxCell id="lUPsrdJMGBZC_unrbqka-4" value="Question: is a legendre polynomial (of any degree) always uniquely determined by any number of points? For example, is a 10th order Legendre polynomial uniquely determined by knowing it in two points? (Note that this does not hold for normal polynomials, there you need at least [the degree + 1] points to uniquely determine it." style="ellipse;shape=doubleEllipse;whiteSpace=wrap;html=1;aspect=fixed;" parent="mkhQnHASV8la3oyavxDH-1" vertex="1">
                    <mxGeometry x="1274" y="2100" width="316.67" height="190" as="geometry"/>
                </mxCell>
                <mxCell id="non5Z_Aw_-Lc27c9wqX2-0" value="in linear regression, if you have mulitple input variables,&amp;nbsp; that have a linear regression relation, that does not necessarily hold for a subset of those variables. " style="ellipse;shape=doubleEllipse;whiteSpace=wrap;html=1;aspect=fixed;" parent="mkhQnHASV8la3oyavxDH-1" vertex="1">
                    <mxGeometry x="1790" y="1440" width="316.67" height="190" as="geometry"/>
                </mxCell>
                <mxCell id="non5Z_Aw_-Lc27c9wqX2-1" value="Chide (6june2021)|: Check whether this is true" style="whiteSpace=wrap;html=1;shape=mxgraph.basic.roundRectCallout;dx=30;dy=15;size=5;boundedLbl=1;" parent="mkhQnHASV8la3oyavxDH-1" vertex="1">
                    <mxGeometry x="1978.67" y="1310" width="151.33" height="130" as="geometry"/>
                </mxCell>
                <mxCell id="0_nWGKa3RmvY90LRvin_-0" value="Transformers typically learn word embeddings are learned by the same transformer as part of its model training process. The word embeddings are not acquired from an extsernal source, such as word2vec." style="ellipse;shape=doubleEllipse;whiteSpace=wrap;html=1;aspect=fixed;" parent="mkhQnHASV8la3oyavxDH-1" vertex="1">
                    <mxGeometry x="310" y="2450" width="410" height="246" as="geometry"/>
                </mxCell>
            </root>
        </mxGraphModel>
    </diagram>
</mxfile>